<?xml version="1.0" encoding="UTF-8" standalone="no"?><!DOCTYPE svg PUBLIC "-//W3C//DTD SVG 1.1//EN" "http://www.w3.org/Graphics/SVG/1.1/DTD/svg11.dtd"><svg width="100%" height="100%" viewBox="0 0 417 417" version="1.1" xmlns="http://www.w3.org/2000/svg" xmlns:xlink="http://www.w3.org/1999/xlink" xml:space="preserve" xmlns:serif="http://www.serif.com/" style="fill-rule:evenodd;clip-rule:evenodd;stroke-linejoin:round;stroke-miterlimit:2;"><rect id="Final" x="-0" y="0" width="416.667" height="416.667" style="fill:none;"/><clipPath id="_clip1"><rect x="-0" y="0" width="416.667" height="416.667"/></clipPath><g clip-path="url(#_clip1)"><g><path d="M161.447,416.667l-255.197,-416.667l510.393,-0l-255.197,416.667Zm0,-79.776l180.816,-295.224l-361.633,-0l180.816,295.224Z"/><path d="M414.942,416.667l-255.197,-416.667l510.393,-0l-255.197,416.667Zm0,-79.776l180.816,-295.224l-361.633,-0l180.816,295.224Z"/></g></g><path d="M416.667,0l0,416.667l-416.667,0l0,-416.667l416.667,0Zm-41.667,41.667l-333.333,0l0,333.333l333.333,-0l0,-333.333Z"/></svg>